<svg width="24" height="24" viewBox="0 0 24 24" fill="none" xmlns="http://www.w3.org/2000/svg"><circle cx="12" cy="12" r="12" fill="#D9D9D9"/><path d="M24 12C24 18.6274 18.6274 24 12 24C5.37258 24 0 18.6274 0 12C0 5.37258 5.37258 0 12 0C18.6274 0 24 5.37258 24 12Z" fill="#001A52"/><path d="M22.2858 12C22.2858 6.31936 17.6806 1.71423 12 1.71423C6.31936 1.71423 1.71423 6.31936 1.71423 12C1.71423 17.6806 6.31936 22.2858 12 22.2858V24C5.37258 24 0 18.6274 0 12C0 5.37258 5.37258 0 12 0C18.6274 0 24 5.37258 24 12C24 18.6274 18.6274 24 12 24V22.2858C17.6806 22.2858 22.2858 17.6806 22.2858 12Z" fill="url(#paint0_linear_5579_15)"/><path fill-rule="evenodd" clip-rule="evenodd" d="M15.38 5.14282C17.3004 5.14282 18.8572 6.68318 18.8572 8.5833V10.1712H17.2523V8.5833C17.2523 7.56016 16.4141 6.73074 15.38 6.73074H14.845C13.811 6.73074 12.9727 7.56016 12.9727 8.5833V10.1712H14.5776C14.7253 10.1712 14.845 10.2897 14.845 10.4359V16.1068C14.845 16.2005 14.7949 16.2871 14.7134 16.3347L10.4426 18.8205C10.3543 18.8719 10.2437 18.869 10.1584 18.8127L6.40488 16.3368C6.33047 16.2877 6.28577 16.2051 6.28577 16.1166V10.4359C6.28577 10.2897 6.40552 10.1712 6.55324 10.1712H11.3678V8.5833C11.3678 6.68318 12.9246 5.14282 14.845 5.14282H15.38ZM10.2979 11.7591C9.26386 11.7591 8.42558 12.5886 8.42558 13.6117C8.42558 14.3507 8.86293 14.9886 9.49549 15.2859V16.2582C9.49549 16.4044 9.61525 16.5229 9.76297 16.5229H10.8329C10.9806 16.5229 11.1004 16.4044 11.1004 16.2582V15.2859C11.7329 14.9886 12.1703 14.3507 12.1703 13.6117C12.1703 12.5886 11.332 11.7591 10.2979 11.7591Z" fill="url(#paint1_linear_5579_15)"/><defs><linearGradient id="paint0_linear_5579_15" x1="12" y1="0" x2="12" y2="24" gradientUnits="userSpaceOnUse"><stop stop-color="#A288FF"/><stop offset="0.5" stop-color="#EFC6FE"/><stop offset="1" stop-color="#B6EDF0"/></linearGradient><linearGradient id="paint1_linear_5579_15" x1="12.5715" y1="5.14282" x2="12.5715" y2="18.8571" gradientUnits="userSpaceOnUse"><stop stop-color="#A48AFF"/><stop offset="0.5" stop-color="#EEC5FE"/><stop offset="1" stop-color="#B7EDF0"/></linearGradient></defs></svg>